<svg width="118" height="28" viewBox="0 0 118 28" fill="none" xmlns="http://www.w3.org/2000/svg">
<path d="M11.16 15.72C10.488 17.864 9.808 19.848 9.12 21.672C8.432 23.496 7.744 25.272 7.056 27H4.728C3.88 24.552 3.128 21.968 2.472 19.248C1.832 16.528 1.232 13.568 0.672 10.368H3.12C3.344 11.616 3.576 12.864 3.816 14.112C4.056 15.36 4.304 16.576 4.56 17.76C4.816 18.928 5.072 20.048 5.328 21.12C5.584 22.192 5.848 23.184 6.12 24.096C6.76 22.416 7.44 20.576 8.16 18.576C8.88 16.56 9.552 14.48 10.176 12.336H12.192C12.816 14.48 13.496 16.56 14.232 18.576C14.968 20.576 15.656 22.416 16.296 24.096C16.552 23.2 16.808 22.216 17.064 21.144C17.32 20.072 17.568 18.952 17.808 17.784C18.064 16.6 18.312 15.384 18.552 14.136C18.792 12.872 19.024 11.616 19.248 10.368H21.624C21.048 13.568 20.432 16.528 19.776 19.248C19.136 21.968 18.4 24.552 17.568 27H15.24C14.536 25.272 13.848 23.496 13.176 21.672C12.504 19.848 11.832 17.864 11.16 15.72ZM22.974 20.784C22.974 19.68 23.134 18.72 23.454 17.904C23.774 17.072 24.198 16.384 24.726 15.84C25.254 15.296 25.862 14.888 26.55 14.616C27.238 14.344 27.942 14.208 28.662 14.208C30.342 14.208 31.63 14.736 32.526 15.792C33.422 16.832 33.87 18.424 33.87 20.568C33.87 20.664 33.87 20.792 33.87 20.952C33.87 21.096 33.862 21.232 33.846 21.36H25.302C25.398 22.656 25.774 23.64 26.43 24.312C27.086 24.984 28.11 25.32 29.502 25.32C30.286 25.32 30.942 25.256 31.47 25.128C32.014 24.984 32.422 24.848 32.694 24.72L33.006 26.592C32.734 26.736 32.254 26.888 31.566 27.048C30.894 27.208 30.126 27.288 29.262 27.288C28.174 27.288 27.23 27.128 26.43 26.808C25.646 26.472 24.998 26.016 24.486 25.44C23.974 24.864 23.59 24.184 23.334 23.4C23.094 22.6 22.974 21.728 22.974 20.784ZM31.542 19.56C31.558 18.552 31.302 17.728 30.774 17.088C30.262 16.432 29.55 16.104 28.638 16.104C28.126 16.104 27.67 16.208 27.27 16.416C26.886 16.608 26.558 16.864 26.286 17.184C26.014 17.504 25.798 17.872 25.638 18.288C25.494 18.704 25.398 19.128 25.35 19.56H31.542ZM39.3083 15.072C39.5803 14.896 39.9883 14.712 40.5323 14.52C41.0923 14.328 41.7323 14.232 42.4523 14.232C43.3483 14.232 44.1403 14.392 44.8283 14.712C45.5323 15.032 46.1243 15.48 46.6043 16.056C47.0843 16.632 47.4443 17.32 47.6843 18.12C47.9403 18.92 48.0683 19.8 48.0683 20.76C48.0683 21.768 47.9163 22.68 47.6123 23.496C47.3243 24.296 46.9083 24.976 46.3643 25.536C45.8203 26.096 45.1643 26.528 44.3963 26.832C43.6283 27.136 42.7643 27.288 41.8043 27.288C40.7643 27.288 39.8443 27.216 39.0443 27.072C38.2443 26.928 37.5883 26.784 37.0763 26.64V8.76L39.3083 8.376V15.072ZM39.3083 25.056C39.5323 25.12 39.8443 25.184 40.2443 25.248C40.6603 25.296 41.1723 25.32 41.7803 25.32C42.9803 25.32 43.9403 24.928 44.6603 24.144C45.3803 23.344 45.7403 22.216 45.7403 20.76C45.7403 20.12 45.6763 19.52 45.5483 18.96C45.4203 18.4 45.2123 17.92 44.9243 17.52C44.6363 17.104 44.2603 16.784 43.7963 16.56C43.3483 16.32 42.8043 16.2 42.1643 16.2C41.5563 16.2 40.9963 16.304 40.4843 16.512C39.9723 16.72 39.5803 16.936 39.3083 17.16V25.056ZM51.3531 27V10.368H61.5051V12.36H53.6811V17.304H60.6411V19.248H53.6811V25.008H62.1051V27H51.3531ZM67.824 25.392C68.736 25.392 69.408 25.272 69.84 25.032C70.288 24.792 70.512 24.408 70.512 23.88C70.512 23.336 70.296 22.904 69.864 22.584C69.432 22.264 68.72 21.904 67.728 21.504C67.248 21.312 66.784 21.12 66.336 20.928C65.904 20.72 65.528 20.48 65.208 20.208C64.888 19.936 64.632 19.608 64.44 19.224C64.248 18.84 64.152 18.368 64.152 17.808C64.152 16.704 64.56 15.832 65.376 15.192C66.192 14.536 67.304 14.208 68.712 14.208C69.064 14.208 69.416 14.232 69.768 14.28C70.12 14.312 70.448 14.36 70.752 14.424C71.056 14.472 71.32 14.528 71.544 14.592C71.784 14.656 71.968 14.712 72.096 14.76L71.688 16.68C71.448 16.552 71.072 16.424 70.56 16.296C70.048 16.152 69.432 16.08 68.712 16.08C68.088 16.08 67.544 16.208 67.08 16.464C66.616 16.704 66.384 17.088 66.384 17.616C66.384 17.888 66.432 18.128 66.528 18.336C66.64 18.544 66.8 18.736 67.008 18.912C67.232 19.072 67.504 19.224 67.824 19.368C68.144 19.512 68.528 19.664 68.976 19.824C69.568 20.048 70.096 20.272 70.56 20.496C71.024 20.704 71.416 20.952 71.736 21.24C72.072 21.528 72.328 21.88 72.504 22.296C72.68 22.696 72.768 23.192 72.768 23.784C72.768 24.936 72.336 25.808 71.472 26.4C70.624 26.992 69.408 27.288 67.824 27.288C66.72 27.288 65.856 27.192 65.232 27C64.608 26.824 64.184 26.688 63.96 26.592L64.368 24.672C64.624 24.768 65.032 24.912 65.592 25.104C66.152 25.296 66.896 25.392 67.824 25.392ZM81.0549 27.288C80.0469 27.288 79.1589 27.128 78.3909 26.808C77.6389 26.488 76.9989 26.04 76.4709 25.464C75.9589 24.888 75.5749 24.208 75.3189 23.424C75.0629 22.624 74.9349 21.744 74.9349 20.784C74.9349 19.824 75.0709 18.944 75.3429 18.144C75.6309 17.344 76.0309 16.656 76.5429 16.08C77.0549 15.488 77.6789 15.032 78.4149 14.712C79.1669 14.376 79.9989 14.208 80.9109 14.208C81.4709 14.208 82.0309 14.256 82.5909 14.352C83.1509 14.448 83.6869 14.6 84.1989 14.808L83.6949 16.704C83.3589 16.544 82.9669 16.416 82.5189 16.32C82.0869 16.224 81.6229 16.176 81.1269 16.176C79.8789 16.176 78.9189 16.568 78.2469 17.352C77.5909 18.136 77.2629 19.28 77.2629 20.784C77.2629 21.456 77.3349 22.072 77.4789 22.632C77.6389 23.192 77.8789 23.672 78.1989 24.072C78.5349 24.472 78.9589 24.784 79.4709 25.008C79.9829 25.216 80.6069 25.32 81.3429 25.32C81.9349 25.32 82.4709 25.264 82.9509 25.152C83.4309 25.04 83.8069 24.92 84.0789 24.792L84.3909 26.664C84.2629 26.744 84.0789 26.824 83.8389 26.904C83.5989 26.968 83.3269 27.024 83.0229 27.072C82.7189 27.136 82.3909 27.184 82.0389 27.216C81.7029 27.264 81.3749 27.288 81.0549 27.288ZM97.4985 20.76C97.4985 21.752 97.3545 22.648 97.0665 23.448C96.7785 24.248 96.3705 24.936 95.8425 25.512C95.3305 26.088 94.7145 26.536 93.9945 26.856C93.2745 27.16 92.4905 27.312 91.6425 27.312C90.7945 27.312 90.0105 27.16 89.2905 26.856C88.5705 26.536 87.9465 26.088 87.4185 25.512C86.9065 24.936 86.5065 24.248 86.2185 23.448C85.9305 22.648 85.7865 21.752 85.7865 20.76C85.7865 19.784 85.9305 18.896 86.2185 18.096C86.5065 17.28 86.9065 16.584 87.4185 16.008C87.9465 15.432 88.5705 14.992 89.2905 14.688C90.0105 14.368 90.7945 14.208 91.6425 14.208C92.4905 14.208 93.2745 14.368 93.9945 14.688C94.7145 14.992 95.3305 15.432 95.8425 16.008C96.3705 16.584 96.7785 17.28 97.0665 18.096C97.3545 18.896 97.4985 19.784 97.4985 20.76ZM95.1705 20.76C95.1705 19.352 94.8505 18.24 94.2105 17.424C93.5865 16.592 92.7305 16.176 91.6425 16.176C90.5545 16.176 89.6905 16.592 89.0505 17.424C88.4265 18.24 88.1145 19.352 88.1145 20.76C88.1145 22.168 88.4265 23.288 89.0505 24.12C89.6905 24.936 90.5545 25.344 91.6425 25.344C92.7305 25.344 93.5865 24.936 94.2105 24.12C94.8505 23.288 95.1705 22.168 95.1705 20.76ZM104.383 27.24C103.007 27.208 102.031 26.912 101.455 26.352C100.879 25.792 100.591 24.92 100.591 23.736V8.76L102.823 8.376V23.376C102.823 23.744 102.855 24.048 102.919 24.288C102.983 24.528 103.087 24.72 103.231 24.864C103.375 25.008 103.567 25.12 103.807 25.2C104.047 25.264 104.343 25.32 104.695 25.368L104.383 27.24ZM111.425 25.392C111.953 25.392 112.417 25.384 112.817 25.368C113.233 25.336 113.577 25.288 113.849 25.224V21.504C113.689 21.424 113.425 21.36 113.057 21.312C112.705 21.248 112.273 21.216 111.761 21.216C111.425 21.216 111.065 21.24 110.681 21.288C110.313 21.336 109.969 21.44 109.649 21.6C109.345 21.744 109.089 21.952 108.881 22.224C108.673 22.48 108.569 22.824 108.569 23.256C108.569 24.056 108.825 24.616 109.337 24.936C109.849 25.24 110.545 25.392 111.425 25.392ZM111.233 14.208C112.129 14.208 112.881 14.328 113.489 14.568C114.113 14.792 114.609 15.12 114.977 15.552C115.361 15.968 115.633 16.472 115.793 17.064C115.953 17.64 116.033 18.28 116.033 18.984V26.784C115.841 26.816 115.569 26.864 115.217 26.928C114.881 26.976 114.497 27.024 114.065 27.072C113.633 27.12 113.161 27.16 112.649 27.192C112.153 27.24 111.657 27.264 111.161 27.264C110.457 27.264 109.809 27.192 109.217 27.048C108.625 26.904 108.113 26.68 107.681 26.376C107.249 26.056 106.913 25.64 106.673 25.128C106.433 24.616 106.313 24 106.313 23.28C106.313 22.592 106.449 22 106.721 21.504C107.009 21.008 107.393 20.608 107.873 20.304C108.353 20 108.913 19.776 109.553 19.632C110.193 19.488 110.865 19.416 111.569 19.416C111.793 19.416 112.025 19.432 112.265 19.464C112.505 19.48 112.729 19.512 112.937 19.56C113.161 19.592 113.353 19.624 113.513 19.656C113.673 19.688 113.785 19.712 113.849 19.728V19.104C113.849 18.736 113.809 18.376 113.729 18.024C113.649 17.656 113.505 17.336 113.297 17.064C113.089 16.776 112.801 16.552 112.433 16.392C112.081 16.216 111.617 16.128 111.041 16.128C110.305 16.128 109.657 16.184 109.097 16.296C108.553 16.392 108.145 16.496 107.873 16.608L107.609 14.76C107.897 14.632 108.377 14.512 109.049 14.4C109.721 14.272 110.449 14.208 111.233 14.208Z" fill="white"/>
<path d="M2.34091 6.09091C1.98864 6.09091 1.67424 5.99242 1.39773 5.79545C1.12311 5.59659 0.90625 5.3267 0.747159 4.9858C0.589962 4.64489 0.511364 4.25947 0.511364 3.82955C0.511364 3.40341 0.589962 3.01989 0.747159 2.67898C0.904356 2.33617 1.12027 2.06534 1.39489 1.86648C1.6714 1.66761 1.98674 1.56818 2.34091 1.56818C2.60227 1.56818 2.84186 1.625 3.05966 1.73864C3.27936 1.85038 3.46307 2.00758 3.6108 2.21023C3.75852 2.41098 3.85417 2.64394 3.89773 2.90909H3.70455C3.64583 2.56629 3.48958 2.28788 3.2358 2.07386C2.9839 1.85795 2.68561 1.75 2.34091 1.75C2.02841 1.75 1.74716 1.84091 1.49716 2.02273C1.24905 2.20265 1.05303 2.44981 0.909091 2.7642C0.765152 3.0767 0.693182 3.43182 0.693182 3.82955C0.693182 4.21591 0.762311 4.56629 0.900568 4.88068C1.04072 5.19508 1.23485 5.44508 1.48295 5.63068C1.73106 5.81629 2.01705 5.90909 2.34091 5.90909C2.57386 5.90909 2.78788 5.8608 2.98295 5.7642C3.17803 5.66572 3.33996 5.52746 3.46875 5.34943C3.59943 5.1714 3.68182 4.96402 3.71591 4.72727H3.90909C3.86742 5.00189 3.77273 5.24148 3.625 5.44602C3.47727 5.65057 3.29261 5.80966 3.07102 5.9233C2.84943 6.03504 2.60606 6.09091 2.34091 6.09091ZM6.28551 6.09091C6.04688 6.09091 5.82623 6.04167 5.62358 5.94318C5.42282 5.8447 5.26089 5.70076 5.13778 5.51136C5.01657 5.32197 4.95597 5.09091 4.95597 4.81818C4.95597 4.67045 4.97964 4.5322 5.02699 4.40341C5.07434 4.27273 5.15767 4.15436 5.27699 4.0483C5.39631 3.94223 5.56297 3.85133 5.77699 3.77557C5.9929 3.69981 6.26847 3.64205 6.60369 3.60227C6.80445 3.57955 6.99384 3.55303 7.17188 3.52273C7.34991 3.49242 7.49479 3.44697 7.60653 3.38636C7.71828 3.32576 7.77415 3.23864 7.77415 3.125V2.86364C7.77415 2.52841 7.66146 2.25947 7.43608 2.05682C7.2107 1.85227 6.91051 1.75 6.53551 1.75C6.22869 1.75 5.9607 1.81818 5.73153 1.95455C5.50237 2.08902 5.34233 2.27841 5.25142 2.52273L5.08097 2.45455C5.14915 2.27273 5.25426 2.11553 5.39631 1.98295C5.53835 1.85038 5.70691 1.74811 5.90199 1.67614C6.09706 1.60417 6.30824 1.56818 6.53551 1.56818C6.7571 1.56818 6.95502 1.60133 7.12926 1.66761C7.3054 1.73201 7.45502 1.82292 7.57812 1.94034C7.70123 2.05587 7.79498 2.19223 7.85938 2.34943C7.92377 2.50663 7.95597 2.67803 7.95597 2.86364V6H7.77415V5.11364H7.75142C7.66051 5.31061 7.54214 5.48295 7.39631 5.63068C7.25237 5.77652 7.0857 5.89015 6.89631 5.97159C6.70881 6.05114 6.50521 6.09091 6.28551 6.09091ZM6.28551 5.90909C6.56203 5.90909 6.81297 5.83523 7.03835 5.6875C7.26373 5.53788 7.44271 5.33049 7.57528 5.06534C7.70786 4.7983 7.77415 4.48864 7.77415 4.13636V3.47727C7.72112 3.51705 7.65672 3.55208 7.58097 3.58239C7.5071 3.61269 7.42282 3.64015 7.32812 3.66477C7.23532 3.6875 7.134 3.70739 7.02415 3.72443C6.9143 3.74148 6.79688 3.75758 6.67188 3.77273C6.28172 3.81818 5.97491 3.88731 5.75142 3.98011C5.52794 4.07292 5.36979 4.18939 5.27699 4.32955C5.18419 4.4697 5.13778 4.63258 5.13778 4.81818C5.13778 5.14773 5.24763 5.41193 5.46733 5.6108C5.68892 5.80966 5.96165 5.90909 6.28551 5.90909ZM9.54545 6V1.63636H9.72727V6H9.54545ZM9.63636 0.840909C9.58712 0.840909 9.54451 0.822917 9.50852 0.786932C9.47254 0.750947 9.45455 0.708333 9.45455 0.659091C9.45455 0.609848 9.47254 0.567235 9.50852 0.53125C9.54451 0.495265 9.58712 0.477273 9.63636 0.477273C9.68561 0.477273 9.72822 0.495265 9.7642 0.53125C9.80019 0.567235 9.81818 0.609848 9.81818 0.659091C9.81818 0.708333 9.80019 0.750947 9.7642 0.786932C9.72822 0.822917 9.68561 0.840909 9.63636 0.840909ZM11.2962 6V1.63636H11.478V2.32955H11.5007C11.603 2.10227 11.7706 1.92045 12.0036 1.78409C12.2384 1.64773 12.5064 1.57955 12.8075 1.57955C12.8303 1.57955 12.8454 1.57955 12.853 1.57955C12.8606 1.57955 12.8757 1.57955 12.8984 1.57955V1.76136C12.8757 1.76136 12.8606 1.76136 12.853 1.76136C12.8454 1.76136 12.8303 1.76136 12.8075 1.76136C12.55 1.76136 12.3208 1.81723 12.12 1.92898C11.9212 2.04072 11.764 2.19508 11.6484 2.39205C11.5348 2.58902 11.478 2.81439 11.478 3.06818V6H11.2962ZM15.4013 6.09091C15.0206 6.09091 14.6873 5.99148 14.4013 5.79261C14.1172 5.59375 13.8965 5.32386 13.7393 4.98295C13.5821 4.64205 13.5036 4.25758 13.5036 3.82955C13.5036 3.40152 13.5821 3.01705 13.7393 2.67614C13.8984 2.33523 14.1143 2.06534 14.3871 1.86648C14.6598 1.66761 14.9676 1.56818 15.3104 1.56818C15.5642 1.56818 15.799 1.62216 16.0149 1.73011C16.2327 1.83807 16.4221 1.98769 16.5831 2.17898C16.7441 2.37027 16.8691 2.59091 16.9581 2.84091C17.049 3.08902 17.0945 3.35417 17.0945 3.63636V3.81818H13.5945V3.63636H16.9126C16.9126 3.28598 16.8407 2.96875 16.6967 2.68466C16.5528 2.39867 16.3596 2.1714 16.1172 2.00284C15.8748 1.83428 15.6058 1.75 15.3104 1.75C15.0111 1.75 14.7403 1.83902 14.4979 2.01705C14.2554 2.19508 14.0613 2.4375 13.9155 2.74432C13.7696 3.05114 13.6929 3.39773 13.6854 3.78409V3.80682C13.6854 4.1875 13.7517 4.53788 13.8842 4.85795C14.0187 5.17614 14.2138 5.43087 14.4695 5.62216C14.7251 5.81345 15.0357 5.90909 15.4013 5.90909C15.6702 5.90909 15.8956 5.86174 16.0774 5.76705C16.2611 5.67235 16.4079 5.56345 16.5178 5.44034C16.6295 5.31723 16.7119 5.21212 16.7649 5.125L16.9126 5.22727C16.8482 5.33712 16.7517 5.45928 16.6229 5.59375C16.4941 5.72822 16.3293 5.8447 16.1286 5.94318C15.9278 6.04167 15.6854 6.09091 15.4013 6.09091ZM20.9957 2.55682L20.8139 2.60227C20.7552 2.41288 20.6728 2.25568 20.5668 2.13068C20.4626 2.00379 20.3348 1.90909 20.1832 1.84659C20.0317 1.7822 19.8556 1.75 19.6548 1.75C19.3063 1.75 19.0241 1.83902 18.8082 2.01705C18.5923 2.19318 18.4844 2.42614 18.4844 2.71591C18.4844 2.94508 18.5573 3.13731 18.7031 3.29261C18.8509 3.44792 19.0734 3.5625 19.3707 3.63636L20.0526 3.80682C20.3726 3.88636 20.6151 4.02083 20.7798 4.21023C20.9465 4.39962 21.0298 4.62879 21.0298 4.89773C21.0298 5.13447 20.9673 5.3428 20.8423 5.52273C20.7192 5.70265 20.5488 5.8428 20.331 5.94318C20.1132 6.04167 19.8613 6.09091 19.5753 6.09091C19.187 6.09091 18.8698 5.99621 18.6236 5.80682C18.3774 5.61742 18.2173 5.34848 18.1435 5L18.3253 4.95455C18.3897 5.26326 18.527 5.5 18.7372 5.66477C18.9493 5.82765 19.2287 5.90909 19.5753 5.90909C19.9541 5.90909 20.2609 5.81629 20.4957 5.63068C20.7306 5.44508 20.848 5.20076 20.848 4.89773C20.848 4.67235 20.7779 4.48201 20.6378 4.3267C20.4976 4.1714 20.2874 4.05871 20.0071 3.98864L19.3253 3.81818C18.9901 3.73485 18.7353 3.59848 18.5611 3.40909C18.3887 3.2197 18.3026 2.98864 18.3026 2.71591C18.3026 2.48674 18.3594 2.28693 18.473 2.11648C18.5885 1.94413 18.7476 1.80966 18.9503 1.71307C19.1548 1.61648 19.3897 1.56818 19.6548 1.56818C19.992 1.56818 20.2732 1.65151 20.4986 1.81818C20.724 1.98295 20.8897 2.22917 20.9957 2.55682ZM23.7479 6.09091C23.4032 6.09091 23.1049 5.99242 22.853 5.79545C22.6011 5.59659 22.407 5.3267 22.2706 4.9858C22.1342 4.64489 22.0661 4.25947 22.0661 3.82955C22.0661 3.40152 22.1352 3.01705 22.2734 2.67614C22.4117 2.33523 22.6068 2.06534 22.8587 1.86648C23.1106 1.66761 23.407 1.56818 23.7479 1.56818C23.9789 1.56818 24.192 1.61648 24.3871 1.71307C24.5821 1.80777 24.7517 1.94413 24.8956 2.12216C25.0395 2.2983 25.1494 2.50758 25.2251 2.75H25.2479V0.181818H25.4297V6H25.2479V4.90909H25.2251C25.1456 5.14962 25.0348 5.3589 24.8928 5.53693C24.7507 5.71307 24.5821 5.84943 24.3871 5.94602C24.1939 6.04261 23.9808 6.09091 23.7479 6.09091ZM23.7479 5.90909C24.0566 5.90909 24.3227 5.81818 24.5462 5.63636C24.7715 5.45265 24.9448 5.20455 25.0661 4.89205C25.1873 4.57765 25.2479 4.22348 25.2479 3.82955C25.2479 3.43561 25.1863 3.08239 25.0632 2.76989C24.942 2.45549 24.7687 2.20739 24.5433 2.02557C24.3198 1.84186 24.0547 1.75 23.7479 1.75C23.4411 1.75 23.175 1.84186 22.9496 2.02557C22.7261 2.20739 22.5528 2.45549 22.4297 2.76989C22.3085 3.08239 22.2479 3.43561 22.2479 3.82955C22.2479 4.22348 22.3085 4.57765 22.4297 4.89205C22.5509 5.20455 22.7232 5.45265 22.9467 5.63636C23.1721 5.81818 23.4392 5.90909 23.7479 5.90909ZM28.745 6.09091C28.3643 6.09091 28.031 5.99148 27.745 5.79261C27.4609 5.59375 27.2403 5.32386 27.0831 4.98295C26.9259 4.64205 26.8473 4.25758 26.8473 3.82955C26.8473 3.40152 26.9259 3.01705 27.0831 2.67614C27.2422 2.33523 27.4581 2.06534 27.7308 1.86648C28.0036 1.66761 28.3113 1.56818 28.6541 1.56818C28.9079 1.56818 29.1428 1.62216 29.3587 1.73011C29.5765 1.83807 29.7659 1.98769 29.9268 2.17898C30.0878 2.37027 30.2128 2.59091 30.3018 2.84091C30.3928 3.08902 30.4382 3.35417 30.4382 3.63636V3.81818H26.9382V3.63636H30.2564C30.2564 3.28598 30.1844 2.96875 30.0405 2.68466C29.8965 2.39867 29.7034 2.1714 29.4609 2.00284C29.2185 1.83428 28.9496 1.75 28.6541 1.75C28.3549 1.75 28.084 1.83902 27.8416 2.01705C27.5992 2.19508 27.4051 2.4375 27.2592 2.74432C27.1134 3.05114 27.0367 3.39773 27.0291 3.78409V3.80682C27.0291 4.1875 27.0954 4.53788 27.228 4.85795C27.3625 5.17614 27.5575 5.43087 27.8132 5.62216C28.0689 5.81345 28.3795 5.90909 28.745 5.90909C29.014 5.90909 29.2393 5.86174 29.4212 5.76705C29.6049 5.67235 29.7517 5.56345 29.8615 5.44034C29.9732 5.31723 30.0556 5.21212 30.1087 5.125L30.2564 5.22727C30.192 5.33712 30.0954 5.45928 29.9666 5.59375C29.8378 5.72822 29.6731 5.8447 29.4723 5.94318C29.2715 6.04167 29.0291 6.09091 28.745 6.09091ZM34.593 1.63636L33.0362 6H32.7862L31.2294 1.63636H31.4226L32.8999 5.77273H32.9226L34.3999 1.63636H34.593Z" fill="#F5F5F5"/>
</svg>
