<svg width="67" height="57" viewBox="0 0 67 57" fill="none" xmlns="http://www.w3.org/2000/svg">
<rect x="8" width="56" height="9" fill="#B6FFFB"/>
<rect y="18.1715" width="11" height="50.264" transform="rotate(-40.6892 0 18.1715)" fill="#B6FFFB"/>
<path d="M27.008 45.672C21.6 45.672 17.472 44.168 14.624 41.16C11.808 38.152 10.4 33.88 10.4 28.344C10.4 25.592 10.832 23.144 11.696 21C12.56 18.824 13.744 17 15.248 15.528C16.752 14.024 18.544 12.888 20.624 12.12C22.704 11.352 24.96 10.968 27.392 10.968C28.8 10.968 30.08 11.08 31.232 11.304C32.384 11.496 33.392 11.736 34.256 12.024C35.12 12.28 35.84 12.552 36.416 12.84C36.992 13.128 37.408 13.352 37.664 13.512L35.504 19.56C34.48 19.016 33.28 18.552 31.904 18.168C30.56 17.784 29.024 17.592 27.296 17.592C26.144 17.592 25.008 17.784 23.888 18.168C22.8 18.552 21.824 19.176 20.96 20.04C20.128 20.872 19.456 21.96 18.944 23.304C18.432 24.648 18.176 26.28 18.176 28.2C18.176 29.736 18.336 31.176 18.656 32.52C19.008 33.832 19.552 34.968 20.288 35.928C21.056 36.888 22.048 37.656 23.264 38.232C24.48 38.776 25.952 39.048 27.68 39.048C28.768 39.048 29.744 38.984 30.608 38.856C31.472 38.728 32.24 38.584 32.912 38.424C33.584 38.232 34.176 38.024 34.688 37.8C35.2 37.576 35.664 37.368 36.08 37.176L38.144 43.176C37.088 43.816 35.6 44.392 33.68 44.904C31.76 45.416 29.536 45.672 27.008 45.672ZM62.657 33.816C62.657 35.448 62.465 36.984 62.081 38.424C61.729 39.864 61.089 41.128 60.161 42.216C59.265 43.272 58.033 44.12 56.465 44.76C54.929 45.368 52.977 45.672 50.609 45.672C48.433 45.672 46.561 45.416 44.993 44.904C43.425 44.36 42.129 43.736 41.105 43.032L43.601 37.224C44.529 37.768 45.521 38.248 46.577 38.664C47.633 39.08 48.785 39.288 50.033 39.288C51.857 39.288 53.169 38.84 53.969 37.944C54.769 37.048 55.169 35.544 55.169 33.432V11.736H62.657V33.816Z" fill="#03A9F4"/>
</svg>
